<svg xmlns="http://www.w3.org/2000/svg" viewBox="0 0 157.27 231.01">
    <style>.cls-1{fill:#fff;}</style>
    <path class="cls-1" d="M136.54,219.54H117.33c0-3.14,0-5.87,0-8.6.52-32.6.92-65.2,1.7-97.79.13-5.44-1.13-8.76-6-11.74-10-6.19-14.75-15.12-14.89-27.6C98,59.14,99.77,45.3,108.76,33.6c14.3-18.6,22.89-19.41,36.28.34,6.53,9.64,9.89,22.28,11.77,34C159,81.64,153.29,93.81,141,101.39c-4.91,3-6,6.32-5.86,11.71.79,32.88,1.19,65.77,1.68,98.65C136.9,214.22,136.67,216.7,136.54,219.54Z"/>
    <path class="cls-1" d="M84.77,78.54c0,21.86,2.81,44.19-.71,65.46-4.53,27.39-2.55,54.51-3.53,81.74,1.38,3.34-1.79,5.48-5.64,5.17-.44,0-1.11,0-1.67,0-13,.25-13.07.25-12.77-12.49.5-21,1.43-42,1.35-63,0-6.55-3.92-13.07-4-19.63-.46-36.8,4.69-73,13.36-108.69C72.9,20,74.38,12.74,76.57,5.73c.69-2.22,3.3-3.84,5-5.73,1.07,2.33,3,4.66,3.05,7,.23,23.84.14,47.69.14,71.53Z"/>
    <path class="cls-1" d="M25.74,219.54H8.57A64.1,64.1,0,0,1,8,212.75c.33-32.91.55-65.82,1.24-98.71.15-6.68-1-10.62-9.19-9.3V19.27c1-.11.27-2.22,3-.31S2.64,59.38,5.13,59.4a15.75,15.75,0,0,1,2.5,0c1.62.13,1.19-4.08,1.22-6.14C9,44.2,8.7,35.11,9,26.05c.08-2.35-.38-7.18,2.75-6.95s3.12,4.81,3.23,7.29c.4,8.49.06,17,.17,25.52,0,2.59-.7,7.71.94,7.77s.39.07,2.46.09,1.27-3.81,1.3-5.72c.14-8.22-.23-16.47.16-24.67.17-3.47,0-10.57,2.69-10.31s2.89,7.12,3.14,10.75c.49,7.35.07,14.75.19,22.12,0,2.52-.29,7.58.89,7.54l3.54-.11c0-7.28-2-39.31,3.33-40.41s2,.46,3,.69c0,26.91.07,53.81-.21,80.71,0,1.51-3,4.31-4.57,4.26-6.2-.19-6.73,3-6.69,8,.28,32.63.32,65.25.43,97.88C25.75,213.31,25.74,216.08,25.74,219.54Z"/>
</svg>
